<?xml version="1.0" encoding="UTF-8" standalone="no"?>
<svg width="800" height="600" xmlns="http://www.w3.org/2000/svg">
  <!-- Background -->
  <rect width="800" height="600" fill="#f8f9fa" />
  
  <!-- Title -->
  <text x="400" y="40" font-family="Arial" font-size="24" text-anchor="middle" font-weight="bold">Google Maps Integration</text>
  
  <!-- Map Interface -->
  <rect x="50" y="80" width="700" height="350" rx="10" ry="10" fill="#e8f5e9" stroke="#388e3c" stroke-width="2" />
  
  <!-- Map Content -->
  <rect x="70" y="100" width="660" height="310" fill="#c8e6c9" stroke="#388e3c" stroke-width="1" />
  
  <!-- Streets on Map -->
  <line x1="120" y1="150" x2="680" y2="150" stroke="#9e9e9e" stroke-width="3" />
  <line x1="120" y1="220" x2="680" y2="220" stroke="#9e9e9e" stroke-width="3" />
  <line x1="120" y1="290" x2="680" y2="290" stroke="#9e9e9e" stroke-width="3" />
  <line x1="120" y1="360" x2="680" y2="360" stroke="#9e9e9e" stroke-width="3" />
  
  <line x1="200" y1="100" x2="200" y2="410" stroke="#9e9e9e" stroke-width="3" />
  <line x1="350" y1="100" x2="350" y2="410" stroke="#9e9e9e" stroke-width="3" />
  <line x1="500" y1="100" x2="500" y2="410" stroke="#9e9e9e" stroke-width="3" />
  <line x1="650" y1="100" x2="650" y2="410" stroke="#9e9e9e" stroke-width="3" />
  
  <!-- Restaurant Markers -->
  <!-- Fully Halal -->
  <circle cx="280" cy="185" r="12" fill="#4CAF50" stroke="#388e3c" stroke-width="2" />
  <text x="280" y="189" font-family="Arial" font-size="16" text-anchor="middle" fill="white" font-weight="bold">H</text>
  
  <circle cx="420" cy="320" r="12" fill="#4CAF50" stroke="#388e3c" stroke-width="2" />
  <text x="420" y="324" font-family="Arial" font-size="16" text-anchor="middle" fill="white" font-weight="bold">H</text>
  
  <circle cx="580" cy="250" r="12" fill="#4CAF50" stroke="#388e3c" stroke-width="2" />
  <text x="580" y="254" font-family="Arial" font-size="16" text-anchor="middle" fill="white" font-weight="bold">H</text>
  
  <!-- Partially Halal -->
  <circle cx="150" cy="250" r="12" fill="#FF9800" stroke="#F57C00" stroke-width="2" />
  <text x="150" y="254" font-family="Arial" font-size="16" text-anchor="middle" fill="white" font-weight="bold">P</text>
  
  <circle cx="520" cy="185" r="12" fill="#FF9800" stroke="#F57C00" stroke-width="2" />
  <text x="520" y="189" font-family="Arial" font-size="16" text-anchor="middle" fill="white" font-weight="bold">P</text>
  
  <!-- Seafood -->
  <circle cx="320" cy="380" r="12" fill="#2196F3" stroke="#1976D2" stroke-width="2" />
  <text x="320" y="384" font-family="Arial" font-size="16" text-anchor="middle" fill="white" font-weight="bold">S</text>
  
  <!-- Cluster -->
  <circle cx="620" cy="380" r="18" fill="#9C27B0" stroke="#7B1FA2" stroke-width="2" />
  <text x="620" y="385" font-family="Arial" font-size="14" text-anchor="middle" fill="white" font-weight="bold">5+</text>
  
  <!-- User Location -->
  <circle cx="400" cy="250" r="8" fill="#F44336" stroke="#D32F2F" stroke-width="2" />
  <circle cx="400" cy="250" r="15" fill="none" stroke="#F44336" stroke-width="2" opacity="0.5" />
  <circle cx="400" cy="250" r="22" fill="none" stroke="#F44336" stroke-width="2" opacity="0.2" />
  
  <!-- Selected Restaurant Card -->
  <rect x="150" y="450" width="500" height="120" rx="10" ry="10" fill="white" stroke="#388e3c" stroke-width="2" />
  <text x="170" y="480" font-family="Arial" font-size="18" font-weight="bold">Halal Kitchen</text>
  <line x1="170" y1="490" x2="630" y2="490" stroke="#e0e0e0" stroke-width="1" />
  
  <rect x="170" y="505" width="80" height="25" rx="12.5" ry="12.5" fill="#4CAF50" stroke="#388e3c" stroke-width="1" />
  <text x="210" y="522" font-family="Arial" font-size="12" text-anchor="middle" fill="white" font-weight="bold">Fully Halal</text>
  
  <rect x="260" y="505" width="50" height="25" rx="12.5" ry="12.5" fill="#FFC107" stroke="#FFA000" stroke-width="1" />
  <text x="285" y="522" font-family="Arial" font-size="12" text-anchor="middle" fill="white" font-weight="bold">4.8 ★</text>
  
  <rect x="320" y="505" width="80" height="25" rx="12.5" ry="12.5" fill="#2196F3" stroke="#1976D2" stroke-width="1" />
  <text x="360" y="522" font-family="Arial" font-size="12" text-anchor="middle" fill="white" font-weight="bold">1.2 km</text>
  
  <rect x="410" y="505" width="90" height="25" rx="12.5" ry="12.5" fill="#9C27B0" stroke="#7B1FA2" stroke-width="1" />
  <text x="455" y="522" font-family="Arial" font-size="12" text-anchor="middle" fill="white" font-weight="bold">Restaurant</text>
  
  <rect x="510" y="505" width="120" height="25" rx="12.5" ry="12.5" fill="#FF5722" stroke="#E64A19" stroke-width="1" />
  <text x="570" y="522" font-family="Arial" font-size="12" text-anchor="middle" fill="white" font-weight="bold">Get Directions</text>
  
  <!-- Map Controls -->
  <rect x="650" y="140" width="50" height="100" rx="5" ry="5" fill="white" stroke="#bdbdbd" stroke-width="1" />
  <text x="675" y="170" font-family="Arial" font-size="20" text-anchor="middle" font-weight="bold">+</text>
  <line x1="660" y1="190" x2="690" y2="190" stroke="#bdbdbd" stroke-width="1" />
  <text x="675" y="220" font-family="Arial" font-size="20" text-anchor="middle" font-weight="bold">−</text>
  
  <!-- Search Bar -->
  <rect x="150" y="90" width="400" height="40" rx="20" ry="20" fill="white" stroke="#bdbdbd" stroke-width="1" />
  <text x="190" y="116" font-family="Arial" font-size="14" text-anchor="start" fill="#757575">Search for halal restaurants nearby...</text>
  <circle cx="170" cy="110" r="10" fill="none" stroke="#757575" stroke-width="2" />
  <line x1="177" y1="117" x2="185" y2="125" stroke="#757575" stroke-width="2" />
  
  <!-- Filter Button -->
  <rect x="560" y="90" width="80" height="40" rx="20" ry="20" fill="#f5f5f5" stroke="#bdbdbd" stroke-width="1" />
  <text x="600" y="116" font-family="Arial" font-size="14" text-anchor="middle" fill="#424242">Filter</text>
  
  <!-- Legend at the bottom -->
  <rect x="50" y="580" width="20" height="20" fill="#4CAF50" />
  <text x="80" y="595" font-family="Arial" font-size="12" text-anchor="start">Fully Halal</text>
  
  <rect x="180" y="580" width="20" height="20" fill="#FF9800" />
  <text x="210" y="595" font-family="Arial" font-size="12" text-anchor="start">Partially Halal</text>
  
  <rect x="320" y="580" width="20" height="20" fill="#2196F3" />
  <text x="350" y="595" font-family="Arial" font-size="12" text-anchor="start">Seafood Only</text>
  
  <rect x="460" y="580" width="20" height="20" fill="#9C27B0" />
  <text x="490" y="595" font-family="Arial" font-size="12" text-anchor="start">Cluster (Multiple Restaurants)</text>
  
  <circle cx="620" cy="590" r="8" fill="#F44336" stroke="#D32F2F" stroke-width="2" />
  <text x="640" y="595" font-family="Arial" font-size="12" text-anchor="start">Your Location</text>
</svg>